<?xml version="1.0" encoding="UTF-8"?>
<svg version="1.1" xmlns="http://www.w3.org/2000/svg" width="500" height="500">
<path d="M0 0 C165 0 330 0 500 0 C500 165 500 330 500 500 C335 500 170 500 0 500 C0 335 0 170 0 0 Z " fill="#8B7FF5" transform="translate(0,0)"/>
<path d="M0 0 C0.77359863 0.19867676 1.54719727 0.39735352 2.34423828 0.60205078 C14.35303839 3.7289765 25.16245366 7.97374105 36 14 C36.94359375 14.515625 37.8871875 15.03125 38.859375 15.5625 C45.06950045 19.11114311 50.55330074 23.38010798 56 28 C56.81339844 28.67804688 57.62679687 29.35609375 58.46484375 30.0546875 C81.74170072 50.13235559 99.39886347 81.08794264 102 112 C102.19072127 117.66787763 102.12089413 123.33140853 102 129 C97.38 129 92.76 129 88 129 C87.90203125 127.6696875 87.8040625 126.339375 87.703125 124.96875 C85.12829212 92.77584531 73.7359411 64.12410924 49.6875 41.8125 C48.14586479 40.516435 46.5811806 39.24751414 45 38 C43.47826172 36.79923828 43.47826172 36.79923828 41.92578125 35.57421875 C33.25115438 28.95909014 24.0763412 24.13534949 14 20 C13.06269043 19.61521484 13.06269043 19.61521484 12.10644531 19.22265625 C-15.94566259 8.06813725 -47.73142922 10.27527338 -75.26953125 21.75 C-89.225577 27.82546309 -101.14373362 36.34177496 -112 47 C-112.80824219 47.78375 -113.61648437 48.5675 -114.44921875 49.375 C-130.64005338 66.04876376 -139.58805303 87.4895824 -144 110 C-144.19464844 110.92554688 -144.38929688 111.85109375 -144.58984375 112.8046875 C-148.53766877 143.56012435 -140.50192314 174.86785311 -121.90844727 199.62329102 C-103.33088738 223.55288844 -76.77071077 239.50044885 -46.76953125 244.54296875 C-42.20275101 245.09666128 -37.65586386 245.34942381 -33.0625 245.5625 C-31.75055664 245.62727539 -31.75055664 245.62727539 -30.41210938 245.69335938 C-28.27488005 245.79846901 -26.13745762 245.89963985 -24 246 C-24 250.62 -24 255.24 -24 260 C-57.01680281 261.19337841 -87.6658499 251.7149858 -113 230 C-113.5057959 229.57106445 -114.0115918 229.14212891 -114.53271484 228.70019531 C-139.47080211 207.38788634 -156.53178307 176.9644359 -159.76416016 144.09716797 C-161.19364185 125.32449225 -161.02280324 106.99642401 -155 89 C-154.77538086 88.32130859 -154.55076172 87.64261719 -154.31933594 86.94335938 C-148.92122581 71.18119212 -140.74860709 56.68368159 -130 44 C-129.15824219 42.99453125 -128.31648438 41.9890625 -127.44921875 40.953125 C-97.17844634 5.8317758 -45.20985763 -12.21028186 0 0 Z " fill="#FDFCFE" transform="translate(272,110)"/>
<path d="M0 0 C4.8831619 3.53594715 8.99981766 8.04994675 13.21875 12.328125 C14.08693359 13.19695312 14.95511719 14.06578125 15.84960938 14.9609375 C20.26856093 19.40994995 24.52088097 23.93403359 28.60766602 28.68847656 C31.51354324 31.96951081 34.65317172 35.01089493 37.78125 38.078125 C42.17040859 42.42044319 46.43324156 46.76883001 50.4140625 51.4921875 C53.62749701 55.08209132 57.10113983 58.41682115 60.52612305 61.8034668 C63.36813739 64.62585001 66.13122603 67.45405083 68.71875 70.515625 C72.02697658 74.42082479 75.64638741 77.98093426 79.28125 81.578125 C83.46969516 85.7232059 87.5079572 89.88728862 91.3125 94.390625 C94.17963676 97.57633251 97.23556879 100.56397258 100.28125 103.578125 C104.46904619 107.72256926 108.51013758 111.88299415 112.30859375 116.390625 C114.59844026 118.92986073 117.01229284 121.31452611 119.44873047 123.71240234 C134.50876984 138.53961452 134.50876984 138.53961452 134.84375 144.765625 C134.2698675 148.65527308 133.82424619 150.61129611 131.28125 153.578125 C127.98594126 155.82492641 125.89666358 156.5553319 121.90625 156.703125 C114.68840438 154.46310395 110.14806648 148.56213343 105.39453125 142.9453125 C102.64363349 139.86390023 99.71966338 136.979658 96.78125 134.078125 C92.75063439 130.09329257 88.89101532 126.06955641 85.2265625 121.7421875 C81.96824748 118.11747561 78.47041526 114.72697548 74.98632812 111.3203125 C71.51304303 107.90149388 68.34446049 104.37012906 65.28125 100.578125 C64.82234375 101.01125 64.3634375 101.444375 63.890625 101.890625 C62.97023438 102.7259375 62.97023438 102.7259375 62.03125 103.578125 C61.42796875 104.135 60.8246875 104.691875 60.203125 105.265625 C58.28125 106.578125 58.28125 106.578125 54.28125 106.578125 C52.28588867 105.05273438 52.28588867 105.05273438 50.19921875 102.921875 C49.04776367 101.75785156 49.04776367 101.75785156 47.87304688 100.5703125 C47.07962891 99.74789062 46.28621094 98.92546875 45.46875 98.078125 C44.68693359 97.28664063 43.90511719 96.49515625 43.09960938 95.6796875 C38.88679396 91.38592409 34.85178403 86.9851283 30.9230957 82.43164062 C28.33882997 79.51420636 25.56768454 76.80069675 22.78125 74.078125 C18.7458827 70.09291481 14.88701993 66.06293351 11.21875 61.734375 C7.97827509 58.12804001 4.49011361 54.7677825 1.04345703 51.35986328 C-2.44111057 47.89943121 -5.73852225 44.36008729 -8.90234375 40.6015625 C-10.81529592 38.47057492 -12.8499207 36.49679299 -14.91625977 34.515625 C-20.93188978 28.71191706 -25.66128072 23.72817256 -26.28125 15.078125 C-25.9819602 9.30183194 -23.41818249 5.0672121 -19.21484375 1.19140625 C-13.62412297 -2.64800441 -5.97377972 -3.12421813 0 0 Z " fill="#FEFDFE" transform="translate(250.71875,166.421875)"/>
<path d="M0 0 C4.50957537 0.34811946 6.50636472 2.02145105 9.6171875 5.19140625 C10.47183594 6.05443359 11.32648438 6.91746094 12.20703125 7.80664062 C13.08746094 8.71607422 13.96789062 9.62550781 14.875 10.5625 C15.74769531 11.44486328 16.62039062 12.32722656 17.51953125 13.23632812 C21.95763684 17.75118291 26.23060669 22.35530989 30.35986328 27.15258789 C33.09235037 30.23039822 36.0507408 33.0696307 39 35.9375 C53.76575412 50.48631187 53.76575412 50.48631187 54.25 57.75 C54.23524003 61.82375307 52.81410476 64.37179047 51 68 C52.26861148 71.96546106 55.25542793 74.41903386 58.1875 77.25 C61.37219862 80.36065978 64.49996666 83.47130814 67.375 86.875 C70.56129433 90.61543247 74.00880254 94.04803498 77.5 97.5 C80.92845382 100.89005591 84.32260763 104.25194033 87.4375 107.9375 C90.74572637 111.84269956 94.36513493 115.40281168 98 119 C102.21010629 123.16646694 106.2724121 127.35285402 110.09765625 131.87890625 C112.78153748 134.87140627 115.64250407 137.67414721 118.5 140.5 C133.81101238 155.65655346 133.81101238 155.65655346 134.3125 161.875 C134.21511081 165.65926561 133.39642005 167.98228586 131 171 C126.71277855 173.85814763 123.02558694 173.96473321 118 173 C112.81245216 169.95231564 109.08856704 165.043525 105.24609375 160.5 C102.12984007 157.03147416 98.81416176 153.7784393 95.5 150.5 C91.15608732 146.19841343 86.93948832 141.89689238 83 137.21875 C79.96327156 133.84987939 76.72188306 130.69090341 73.5 127.5 C69.15635562 123.19812143 64.93951243 118.89692101 61 114.21875 C57.33560121 110.1535576 53.38299613 106.36465228 49.49511719 102.51464844 C45.5999806 98.64294125 41.82658685 94.72850689 38.296875 90.515625 C36.93738587 88.92682445 35.49558151 87.46039136 34 86 C30.45481116 87.39759905 30.45481116 87.39759905 27 89 C20.91220875 89.50731594 17.79435289 88.93026207 13 85 C9.7588674 82.00912087 6.6575455 78.8910235 3.5625 75.75 C2.74201172 74.92886719 1.92152344 74.10773438 1.07617188 73.26171875 C-3.22796371 68.92666759 -7.35612636 64.50550081 -11.34008789 59.87597656 C-14.08481234 56.77398176 -17.04271028 53.89739732 -20 51 C-28.71533859 42.32397699 -28.71533859 42.32397699 -31.4375 39.4375 C-31.97246094 38.87933594 -32.50742188 38.32117188 -33.05859375 37.74609375 C-34.40270359 35.25307674 -33.76327731 33.64211375 -33 31 C-30.9609375 30.06640625 -30.9609375 30.06640625 -28 30 C-25.1951106 31.96438591 -22.9542437 34.44098982 -20.625 36.9375 C-19.95235107 37.63464111 -19.27970215 38.33178223 -18.58666992 39.05004883 C-14.88082179 42.91476415 -11.27850991 46.85415666 -7.828125 50.94921875 C-3.45740895 55.8522656 1.32267959 60.39180255 6 65 C7.32 63.68 8.64 62.36 10 61 C-0.3452629 49.85098963 -0.3452629 49.85098963 -11 39 C-17.78913374 32.23119301 -17.78913374 32.23119301 -20.25 29.625 C-20.81203125 29.03976563 -21.3740625 28.45453125 -21.953125 27.8515625 C-23 26 -23 26 -22.671875 23.2734375 C-22.33929688 22.14808594 -22.33929688 22.14808594 -22 21 C-19.9375 20.0625 -19.9375 20.0625 -17 20 C-12.3634464 23.41408935 -8.81879828 28.35512163 -5.08203125 32.69921875 C-1.99302223 36.11277656 1.29526505 39.31647152 4.57006836 42.55053711 C8.58277964 46.5326996 12.37452579 50.65964355 16 55 C17.32 54.34 18.64 53.68 20 53 C20 49.51142197 19.62331434 49.22814622 17.32421875 46.8125 C16.74873291 46.20156494 16.17324707 45.59062988 15.58032227 44.96118164 C14.95569092 44.3139917 14.33105957 43.66680176 13.6875 43 C13.05320068 42.33154053 12.41890137 41.66308105 11.76538086 40.97436523 C7.92339706 36.94334445 4.01371453 32.98619911 0.0625 29.0625 C-6.27372511 22.75439424 -6.27372511 22.75439424 -9.1875 19.625 C-9.73792969 19.03976563 -10.28835937 18.45453125 -10.85546875 17.8515625 C-12.33258671 15.4619587 -12.213172 13.75702457 -12 11 C-9.81591797 10.22290039 -9.81591797 10.22290039 -7 10 C-4.52392578 11.77905273 -4.52392578 11.77905273 -1.9453125 14.43359375 C-1.2483577 15.13972557 -1.2483577 15.13972557 -0.537323 15.86012268 C0.94804327 17.3724166 2.41110896 18.90443926 3.875 20.4375 C4.85152181 21.43556035 5.82937459 22.43232031 6.80859375 23.42773438 C11.54320033 28.26614616 16.15528937 33.18899646 20.52416992 38.36352539 C22.79485067 40.88137039 25.33059371 42.91656095 28 45 C28.99 44.01 29.98 43.02 31 42 C29.34264673 37.65076722 26.08845054 34.90865776 22.8125 31.75 C18.62886277 27.64841722 14.59796207 23.53239882 10.8359375 19.03515625 C7.49182334 15.32817013 3.73736787 11.99005479 0.0625 8.61328125 C-2 6 -2 6 -1.875 3.23046875 C-1 1 -1 1 0 0 Z " fill="#FDFDFE" transform="translate(197,201)"/>
</svg>
